<svg width="53" height="53" viewBox="0 0 53 53" fill="none" xmlns="http://www.w3.org/2000/svg">
<path opacity="0.54" d="M26.6853 11.9052C27.5708 13.8316 27.4157 4.99631 28.4083 6.16281C29.4158 7.32818 29.934 11.9777 30.8712 10.8431C31.8066 9.70895 33.0949 12.8121 33.3941 10.8597C33.6887 8.90718 34.2143 14.6944 34.7588 13.3554C35.304 12.0167 35.7591 12.7412 36.4767 14.5793C37.1897 16.417 39.0524 17.8929 39.54 15.5366C39.6331 15.076 39.7474 14.8569 39.8621 14.8098C39.8646 14.8073 39.8773 14.8112 39.8797 14.8086C40.3905 14.6159 40.9988 17.3312 41.437 18.0604C41.5943 18.3439 41.7384 18.7383 41.8616 19.1514C41.9137 19.3265 41.9687 19.6984 42.007 20.0672C42.007 20.0675 42.007 20.0677 42.0071 20.068C42.0548 20.5272 42.0761 20.9813 42.0377 21.0439C41.8472 21.3479 41.6076 22.1235 41.3221 23.8265C41.0394 25.4538 40.785 25.3427 40.5493 25.0706L40.5656 25.0695C40.311 24.813 40.0375 24.4102 39.64 25.2225C38.8205 26.8892 38.5224 30.1289 37.2547 28.1484C35.9765 26.1699 36.4274 34.8398 34.4617 30.0666C32.4757 25.2963 33.0619 34.3551 31.608 35.6887C30.6121 36.5972 29.1836 34.6533 28.0748 33.4766L28.202 33.4651C27.687 32.9175 27.2398 32.5388 26.9542 32.6998C26.0557 33.2045 24.8964 34.3811 23.4404 33.3226C21.9832 32.2642 20.6323 35.439 18.9367 33.4625C17.2413 31.486 14.8677 29.0139 13.7173 27.3121C13.5882 27.1254 13.4726 26.9543 13.3676 26.7993C12.4922 25.546 12.1999 25.3593 11.4592 26.4213C10.9845 27.106 10.1724 26.5868 9.30891 24.314C8.88288 23.1668 8.87703 21.5265 9.08926 20.7238C9.41511 19.5467 9.8664 20.2706 9.90358 18.2118C9.97551 14.0965 10.0119 12.5167 10.8447 14.8255C11.6756 17.134 11.421 11.7241 11.8285 12.3087C11.8609 12.3543 11.8929 12.4156 11.925 12.4887C12.2929 13.3535 12.6734 15.8629 14.0846 13.4424C15.6165 10.8168 16.5327 10.0938 17.1494 9.43846C17.7679 8.78293 19.4558 11.3954 20.4606 10.2906C21.4652 9.18562 23.8047 9.87426 24.5586 8.15761C25.117 6.88443 25.4565 8.50965 25.9674 10.216C25.9828 10.199 26.0659 10.2224 26.0816 10.2056C26.2563 10.8017 26.4522 11.4078 26.6853 11.9052Z" fill="#5FA8D3"/>
<path opacity="0.59" d="M18.4321 38.8983C18.5649 36.7233 13.8232 44.194 13.347 42.5178C12.89 40.8458 15.0406 36.6932 13.3728 36.9435C11.6594 37.164 12.195 33.7189 10.6605 35.0114C9.09312 36.2837 12.2396 31.3996 10.8593 32.0248C9.46195 32.6358 9.51624 31.7469 10.0863 29.8478C10.4186 28.7336 10.3612 27.4686 9.889 26.9734L10.1316 27.1072C9.87 26.8301 9.57685 27.0543 9.39648 28.0001C9.29848 28.4775 9.31201 28.6907 9.31582 28.706C9.34808 28.7414 9.51665 28.0857 9.38991 27.3338C9.28474 26.5825 8.98178 25.7565 8.76598 25.4126C8.59607 25.1408 8.41077 24.7634 8.23713 24.3675C8.16387 24.1996 8.06529 23.8368 7.98554 23.4746C7.98549 23.4744 7.98544 23.4742 7.98539 23.4739C7.88582 23.0231 7.81821 22.5731 7.85987 22.5046C8.08283 22.173 8.24414 21.3572 8.85341 19.6303C9.46906 18.0487 10.1632 18.1428 10.6086 18.4637C11.099 18.8042 11.589 19.3638 12.8599 18.9733C13.4494 18.7972 14.0109 18.5485 14.5478 18.2991C14.5899 18.3894 14.9478 18.4457 14.9827 18.539C16.5446 17.7131 18.1164 16.9492 18.0601 18.84C17.9832 21.3028 22.9796 14.2253 21.5368 19.1425C20.2766 24.1532 25.1427 16.4818 26.9605 16.1205C28.7994 15.7682 28.3078 21.1385 29.4264 21.2272C29.7938 21.257 30.1966 21.2258 30.6418 21.2508C31.5808 21.316 32.5625 21.5564 33.1353 22.7265C33.9977 24.4739 37.0024 22.5637 37.5949 25.2129C38.1876 27.8636 39.1918 31.3185 39.4256 33.418C39.6637 35.5199 39.7472 36.0077 41.1542 35.428C41.964 35.0926 42.4281 35.9579 42.1415 38.3464C41.9959 39.5385 41.5663 41.1301 40.7987 41.6836C39.7738 42.515 39.673 41.6317 38.5842 43.3906C36.4141 46.9046 35.5058 48.2171 35.8262 45.7505C36.1525 43.2859 33.6092 48.0683 33.477 47.3222C33.364 46.5832 34.7043 43.6935 31.7728 45.0342C28.8384 46.3708 27.5324 46.4406 26.57 46.6355C25.6043 46.8285 25.3178 43.6207 23.7364 43.9669C22.5982 44.2141 21.2788 43.2761 20.0145 43.1008C19.4747 43.0112 18.9815 43.0563 18.4779 43.3222C16.7419 44.2852 18.3252 41.0838 18.4321 38.8983Z" fill="#E5534B"/>
<path d="M23.1675 30C24.1068 27.924 24.8837 27.2612 26.6675 27M26.1675 41.5C31.4792 40.8927 33.4154 39.5444 35.1675 35.5" stroke="black"/>
<path d="M22.6673 41L26.1673 39.5C26.4185 34.9465 23.5296 30.9999 21.6673 31C19.8051 31.0001 18.6675 34 18.1673 34C17.6672 34 17.6264 31.1317 15.1673 31C12.7082 30.8683 9.19 34.7662 10.1673 39.5L13.1673 41M22.6673 41V36.5M22.6673 41H13.1673M13.1673 41V36.5" stroke="black"/>
<circle cx="17.6675" cy="25" r="4.5" stroke="black"/>
<path d="M40.3348 34L43.8348 32.5C44.086 27.9465 41.197 23.9999 39.3348 24C37.4726 24.0001 36.335 27 35.8348 27C35.3346 27 35.2939 24.1317 32.8348 24C30.3757 23.8683 26.8575 27.7662 27.8348 32.5L30.8348 34M40.3348 34V29.5M40.3348 34H30.8348M30.8348 34V29.5" stroke="black"/>
<circle cx="35.335" cy="18" r="4.5" stroke="black"/>
<circle cx="26.5" cy="26.5" r="26" stroke="black"/>
</svg>
