<svg width="53" height="53" viewBox="0 0 53 53" fill="none" xmlns="http://www.w3.org/2000/svg">
<path opacity="0.54" d="M28.6852 13.9052C29.5707 15.8316 29.4155 6.99631 30.4082 8.16281C31.4157 9.32818 31.9339 13.9777 32.871 12.8431C33.8065 11.709 35.0947 14.8121 35.394 12.8597C35.6886 10.9072 36.2141 16.6944 36.7587 15.3554C37.3039 14.0167 37.7589 14.7412 38.4765 16.5793C39.1896 18.417 41.0522 19.8929 41.5399 17.5366C41.633 17.076 41.7472 16.8569 41.862 16.8098C41.8644 16.8073 41.8772 16.8112 41.8796 16.8086C42.3904 16.6159 42.9987 19.3312 43.4369 20.0604C43.5942 20.3439 43.7383 20.7383 43.8615 21.1514C43.9136 21.3265 43.9686 21.6984 44.0069 22.0672C44.0069 22.0675 44.0069 22.0677 44.0069 22.068C44.0547 22.5272 44.076 22.9813 44.0376 23.0439C43.847 23.3479 43.6075 24.1235 43.3219 25.8265C43.0393 27.4538 42.7849 27.3427 42.5492 27.0706L42.5655 27.0695C42.3109 26.813 42.0374 26.4102 41.6399 27.2225C40.8204 28.8892 40.5223 32.1289 39.2546 30.1484C37.9764 28.1699 38.4273 36.8398 36.4616 32.0666C34.4756 27.2963 35.0618 36.3551 33.6079 37.6887C32.612 38.5972 31.1835 36.6533 30.0746 35.4766L30.2019 35.4651C29.6869 34.9175 29.2397 34.5388 28.9541 34.6998C28.0555 35.2045 26.8963 36.3811 25.4403 35.3226C23.9831 34.2642 22.6322 37.439 20.9366 35.4625C19.2412 33.486 16.8676 31.0139 15.7172 29.3121C15.5881 29.1254 15.4725 28.9543 15.3675 28.7993C14.4921 27.546 14.1998 27.3593 13.4591 28.4213C12.9844 29.106 12.1722 28.5868 11.3088 26.314C10.8828 25.1668 10.8769 23.5265 11.0891 22.7238C11.415 21.5467 11.8663 22.2706 11.9035 20.2118C11.9754 16.0965 12.0118 14.5167 12.8446 16.8255C13.6755 19.134 13.4209 13.7241 13.8283 14.3087C13.8607 14.3543 13.8927 14.4156 13.9249 14.4887C14.2928 15.3535 14.6733 17.8629 16.0845 15.4424C17.6164 12.8168 18.5325 12.0938 19.1493 11.4385C19.7678 10.7829 21.4556 13.3954 22.4605 12.2906C23.4651 11.1856 25.8046 11.8743 26.5585 10.1576C27.1169 8.88443 27.4563 10.5097 27.9672 12.216C27.9827 12.199 28.0658 12.2224 28.0814 12.2056C28.2562 12.8017 28.4521 13.4078 28.6852 13.9052Z" fill="#5FA8D3"/>
<path opacity="0.59" d="M19.432 39.8983C19.5648 37.7233 14.823 45.194 14.3469 43.5178C13.8898 41.8458 16.0405 37.6932 14.3727 37.9435C12.6592 38.164 13.1949 34.7189 11.6603 36.0114C10.093 37.2837 13.2395 32.3996 11.8591 33.0248C10.4618 33.6358 10.5161 32.7469 11.0862 30.8478C11.4184 29.7336 11.3611 28.4686 10.8889 27.9734L11.1315 28.1072C10.8699 27.8301 10.5767 28.0543 10.3964 29.0001C10.2984 29.4775 10.3119 29.6907 10.3157 29.706C10.348 29.7414 10.5165 29.0857 10.3898 28.3338C10.2846 27.5825 9.98166 26.7565 9.76586 26.4126C9.59595 26.1408 9.41065 25.7634 9.23701 25.3675C9.16374 25.1996 9.06516 24.8368 8.98542 24.4746C8.98537 24.4744 8.98532 24.4742 8.98527 24.4739C8.8857 24.0231 8.81809 23.5731 8.85975 23.5046C9.08271 23.173 9.24402 22.3572 9.85328 20.6303C10.4689 19.0487 11.1631 19.1428 11.6085 19.4637C12.0988 19.8042 12.5889 20.3638 13.8598 19.9733C14.4493 19.7972 15.0107 19.5485 15.5476 19.2991C15.5898 19.3894 15.9477 19.4457 15.9826 19.539C17.5445 18.7131 19.1163 17.9492 19.06 19.84C18.9831 22.3028 23.9795 15.2253 22.5367 20.1425C21.2765 25.1532 26.1425 17.4818 27.9604 17.1205C29.7993 16.7682 29.3077 22.1385 30.4262 22.2272C30.7936 22.257 31.1965 22.2258 31.6417 22.2508C32.5807 22.316 33.5624 22.5564 34.1352 23.7265C34.9976 25.4739 38.0023 23.5637 38.5948 26.2129C39.1875 28.8636 40.1916 32.3185 40.4254 34.418C40.6636 36.5199 40.7471 37.0077 42.1541 36.428C42.9639 36.0926 43.428 36.9579 43.1414 39.3464C42.9958 40.5385 42.5662 42.1301 41.7986 42.6836C40.7737 43.515 40.6729 42.6317 39.5841 44.3906C37.4139 47.9046 36.5057 49.2171 36.8261 46.7505C37.1523 44.2859 34.6091 49.0683 34.4769 48.3222C34.3639 47.5832 35.7042 44.6935 32.7727 46.0342C29.8383 47.3708 28.5322 47.4406 27.5699 47.6355C26.6041 47.8285 26.3177 44.6207 24.7363 44.9669C23.5981 45.2141 22.2787 44.2761 21.0144 44.1008C20.4746 44.0112 19.9814 44.0563 19.4778 44.3222C17.7418 45.2852 19.3251 42.0838 19.432 39.8983Z" fill="#E5534B"/>
<circle cx="26.5" cy="26.5" r="26" stroke="black"/>
<path d="M15.5083 10V15.5M38.0083 10V15.5M10.0083 20V41.5C10.4138 42.6835 11.0333 42.9373 12.5083 43H42.0083C43.5193 42.6391 43.5896 41.92 43.5083 40.5V15.5C43.3069 14.0998 43.0008 13.5305 42.0083 13H11.0083C10.1895 13.3973 9.95012 13.9137 10.0083 15.5V20ZM10.0083 20H43.0083" stroke="black"/>
<g filter="url(#filter0_in_10288_689)">
<path d="M30.9132 37.9873C31.3804 37.9873 31.3804 37.3644 31.3804 37.3644V35.807M31.3804 35.807L28.11 37.9873M31.3804 35.807L34.6508 34.0939C35.1103 33.1105 35.1222 32.4478 34.6508 32.2251M30.6017 28.176C31.2247 28.176 33.2341 29.3626 33.0935 31.2907M31.0689 26.6187C32.2867 26.452 32.7526 26.8434 32.9377 28.0203M32.9377 28.0203L32.3148 29.1104M32.9377 28.0203C33.8374 28.4037 34.3394 28.799 34.1836 30.0449L33.0949 31.2697" stroke="#F9F9F9" stroke-width="2.5"/>
<path d="M28.2658 37.8315C33.2493 32.848 33.0935 32.3808 33.0935 31.135M28.2658 37.8315L31.6352 34.7169L34.7499 32.0694C35.1442 30.9603 34.8578 30.6506 34.1837 30.2006M28.2658 37.8315L27.4871 38.6102L26.7895 37.9873M23.3158 35.9039C23.3158 37.5236 23.1622 37.9354 23.4737 37.9873H25.2895L26.7895 37.9873M26.7895 37.9873L20.0119 33.6934C20.0119 33.6934 19.9971 33.4693 20.0119 33.1595C20.0238 32.909 20.4791 32.3809 20.4791 32.3809M26.7895 37.9873L25.4626 36.6744M20.4791 32.3809C20.4791 32.3809 19.9117 31.7821 20.0119 31.2907C20.0995 30.861 20.7905 30.2006 20.7905 30.2006M20.4791 32.3809L25.4626 36.6744M20.7905 30.2006L21.7249 31.135M20.7905 30.2006C20.6128 29.1934 20.8661 28.6358 21.8807 28.176M25.4626 36.6744C23.7495 34.5618 22.1609 33.8169 21.7481 31.2907M21.7249 31.135C21.732 31.1876 21.7397 31.2395 21.7481 31.2907M21.7249 31.135L21.7481 31.2907M21.7249 31.135C21.8776 30.2691 22.0572 29.8169 22.6593 29.1104M30.9133 37.9873L28.11 37.9873M21.8807 28.176L22.6593 29.1104M21.8807 28.176C22.2317 26.798 22.6603 26.4967 23.7495 26.6187L24.2167 28.3317M22.6593 29.1104C22.6593 29.1104 23.3564 28.6849 24.2167 28.3317M24.2167 28.3317C24.8517 28.2696 25.5158 28.4171 26.3947 28.7384M23.7495 26.7744C24.3831 25.7101 24.8523 25.3739 26.0855 25.6843M26.0855 25.6843C26.2412 25.6843 26.3947 28.7384 26.3947 28.7384M26.0855 25.6843C27.4871 24.6934 27.828 24.8539 28.5772 25.6843M26.3947 28.7384L27.4871 30.0448C28.284 28.6889 29.2631 28.3139 30.7575 28.176M28.5772 25.6843V28.7384M28.5772 25.6843C30.1113 25.3877 30.7893 25.7045 31.069 26.6187L30.6018 28.176" stroke="#F9F9F9" stroke-width="2.5"/>
</g>
<path d="M27.5952 40.3369C27.318 40.0906 27.1125 39.9055 26.7941 39.6282C26.6114 39.4691 26.383 39.2482 26.1455 39.1693C25.9546 39.1059 25.2153 39.2568 24.5419 39.2056C24.007 39.1649 23.7797 39.1642 23.5484 39.1335C23.2947 39.0998 23.1317 39.0513 22.8644 39.0306C22.6692 39.0155 22.4737 38.8871 22.293 38.7328C22.1215 38.5863 22.0411 38.3218 21.984 38.1465C21.9327 37.9891 21.9479 37.4102 21.8967 36.959C21.8425 36.4817 21.7325 36.1925 21.6243 36.0121C21.4895 35.7872 21.1171 35.6166 20.8019 35.4666C20.5605 35.3518 20.3037 35.2969 20.056 35.2145C19.8087 35.1322 19.5834 35.05 19.3308 34.9011C19.0544 34.7382 18.8218 34.5254 18.6976 34.3816C18.5759 34.2407 18.7385 33.8484 18.6873 33.4315C18.6012 32.7306 18.769 32.5915 18.8052 32.5197C18.8893 32.3524 18.6157 32.1604 18.5074 31.7549C18.3331 31.1024 18.5842 30.8334 18.6763 30.6169C18.7659 30.4064 19.0354 30.2267 19.2316 30.0662C19.642 29.7307 19.4168 28.5393 19.5199 28.3231C19.6431 28.0647 19.7871 27.9116 19.9107 27.7468C20.0288 27.5894 20.2086 27.5 20.399 27.4122C20.4456 27.3966 20.4864 27.3864 20.5328 27.3812C20.5793 27.3759 20.6302 27.3759 20.6826 27.4068" stroke="black" stroke-width="0.5" stroke-linecap="round"/>
<path d="M20.806 27.4762C20.8471 27.3737 20.9289 27.1688 21.0575 26.9115C21.213 26.6005 21.3609 26.3764 21.5664 26.1705C21.7201 26.0166 21.9571 25.9338 22.1833 25.8257C22.6026 25.6252 22.8212 25.5938 23.022 25.5425C23.1941 25.4987 23.3766 25.2864 23.5365 25.1006C23.7102 24.8987 23.8809 24.7815 24.3018 24.5506C24.5156 24.4332 24.7344 24.4007 25.1396 24.339C25.8379 24.2326 26.0509 24.339 26.2316 24.2364C26.4125 24.1337 26.6576 23.9385 26.9253 23.8198C27.3174 23.646 27.5322 23.6292 28.2557 23.634C28.666 23.6367 28.8184 23.8138 28.9832 23.9576C29.1483 24.1017 29.1689 24.2458 29.2148 24.3075C29.3956 24.5511 29.7645 24.2773 30.0167 24.2412C30.196 24.2155 30.6465 24.2051 31.035 24.2614C31.2319 24.2899 31.4309 24.4001 31.6062 24.4876C31.7792 24.5739 31.8531 24.821 31.9508 25.2221C32.049 25.6255 32.5727 25.429 32.8043 25.4547C33.0316 25.48 33.2208 25.6036 33.3806 25.7218C33.5934 25.8791 33.7355 26.0252 33.8591 26.1948C34.022 26.4183 34.0546 26.6319 34.1011 27.0016C34.1315 27.2442 34.4552 27.2799 34.7533 27.4549C35.0522 27.6304 35.1551 27.8045 35.3911 28.0255C35.5787 28.201 35.7108 28.3603 35.7673 28.4629C35.9385 28.7739 35.8142 29.3062 35.7986 29.4814C35.7912 29.5646 35.7729 29.6564 35.8187 29.7794C35.96 30.1585 36.2759 30.2628 36.3641 30.4637C36.5 30.7729 36.3802 31.2917 36.349 31.4564C36.3156 31.6331 36.2154 31.7854 36.2151 31.9604C36.2147 32.1828 36.287 32.3409 36.3026 32.5057C36.3393 32.8936 36.2672 33.6357 36.1794 33.8686C36.1059 34.0637 36 34.356 35.9222 34.604C35.8581 34.8085 35.7321 34.9843 35.5985 35.1596C35.4873 35.3055 35.3211 35.4268 35.1051 35.5558C34.9173 35.668 34.7039 35.7564 34.534 35.8439C34.3392 35.9442 34.1793 36.0138 34.0145 36.0806C33.8351 36.1533 33.6238 36.2193 33.4334 36.2505C33.2549 36.2797 33.0992 36.394 32.96 36.5176C32.8151 36.6463 32.7486 37.0698 32.6667 37.3916C32.6094 37.6168 32.574 37.8234 32.5021 38.0037C32.4243 38.1989 32.379 38.369 32.281 38.5489C32.1819 38.7308 32.0395 38.8627 31.9364 39.0323C31.8603 39.1576 31.7821 39.2744 31.7 39.3565C31.5451 39.5114 30.6175 39.5422 30.0492 39.5679C29.7967 39.5792 29.0011 39.604 28.5215 39.5426C28.4757 39.5367 28.4394 39.5015 28.3828 39.5165C28.1407 39.6857 27.9664 39.8808 27.8173 40.04C27.7599 40.1076 27.7395 40.1483 27.6877 40.252" stroke="black" stroke-width="0.5" stroke-linecap="round"/>
<path d="M27.5334 32.0743C27.4414 31.8904 27.2155 31.4997 27.0608 31.3239C26.8968 31.1377 26.6916 30.9337 26.5104 30.7223C26.3587 30.5453 26.1558 30.4393 25.991 30.3158C25.8098 30.1798 25.4683 29.9258 25.1686 29.7499C24.7938 29.5299 24.5511 29.6469 24.1046 29.6466C23.8674 29.6464 23.6568 29.8721 23.3581 30.1445C23.155 30.3297 23.0594 30.5202 22.9614 30.6901C22.9052 30.7875 22.8533 30.8908 22.8224 31.0138C22.747 31.3142 22.9656 31.5077 23.1097 31.7749C23.2083 31.9578 23.305 32.1045 23.403 32.2537C23.4997 32.401 23.634 32.5569 23.7476 32.7217C23.8718 32.902 23.9944 33.0507 24.1177 33.2411C24.27 33.4762 24.4981 33.6679 24.6271 33.8327C24.7433 33.9812 24.8789 34.1104 25.0025 34.2596C25.1303 34.4139 25.3208 34.5936 25.491 34.7277C25.6319 34.8388 25.7738 34.9436 25.9281 35.1081C26.1044 35.296 26.2058 35.4577 26.4063 35.6481C26.6014 35.8335 26.823 36.044 27.008 36.2395C27.1936 36.4252 27.2862 36.5279 27.3427 36.61C27.3686 36.6514 27.389 36.6921 27.4408 36.7649" stroke="black" stroke-width="0.5" stroke-linecap="round"/>
<path d="M27.6878 32.0434C27.6878 31.9514 27.9933 31.2571 28.2889 30.8354C28.4147 30.6559 28.5407 30.4807 28.7004 30.3466C28.8611 30.2116 29.0962 30.1202 29.3224 30.0327C29.5866 29.9305 29.806 29.832 29.9708 29.7908C30.1451 29.7472 30.8194 29.7289 31.2411 29.7647C31.4592 29.7832 31.6878 29.9955 31.8277 30.1705C31.9873 30.3701 32.0285 30.6022 32.0288 31.1924C32.029 31.5379 31.8032 31.857 31.6947 32.0633C31.5937 32.2553 31.3613 32.505 31.1346 32.7471C30.9266 32.9693 30.7132 33.0611 30.4813 33.2666C30.2767 33.448 30.0954 33.6783 29.9513 33.8326C29.7955 33.9995 29.6325 34.2437 29.5346 34.4138C29.4355 34.5859 29.2727 34.7991 29.1181 35.0769C29.0148 35.2625 28.8919 35.4268 28.7837 35.6069C28.6137 35.89 28.2963 36.0952 28.1101 36.2449C27.9146 36.3841 27.7807 36.456 27.714 36.5074C27.6779 36.5282 27.6372 36.5384 27.5643 36.5797" stroke="black" stroke-width="0.5" stroke-linecap="round"/>
<defs>
<filter id="filter0_in_10288_689" x="18.7499" y="23.75" width="17.5001" height="20.5794" filterUnits="userSpaceOnUse" color-interpolation-filters="sRGB">
<feFlood flood-opacity="0" result="BackgroundImageFix"/>
<feBlend mode="normal" in="SourceGraphic" in2="BackgroundImageFix" result="shape"/>
<feColorMatrix in="SourceAlpha" type="matrix" values="0 0 0 0 0 0 0 0 0 0 0 0 0 0 0 0 0 0 127 0" result="hardAlpha"/>
<feOffset dy="4"/>
<feGaussianBlur stdDeviation="2"/>
<feComposite in2="hardAlpha" operator="arithmetic" k2="-1" k3="1"/>
<feColorMatrix type="matrix" values="0 0 0 0 0.372549 0 0 0 0 0.658824 0 0 0 0 0.827451 0 0 0 0.35 0"/>
<feBlend mode="normal" in2="shape" result="effect1_innerShadow_10288_689"/>
<feTurbulence type="fractalNoise" baseFrequency="0.06915629655122757 0.06915629655122757" stitchTiles="stitch" numOctaves="3" result="noise" seed="1161" />
<feColorMatrix in="noise" type="luminanceToAlpha" result="alphaNoise" />
<feComponentTransfer in="alphaNoise" result="coloredNoise1">
<feFuncA type="discrete" tableValues="1 1 1 1 1 1 1 1 1 1 1 1 1 1 1 1 1 1 1 1 1 1 1 1 1 1 1 1 1 1 1 1 1 1 1 1 1 1 1 1 1 1 1 1 1 1 1 1 1 1 1 0 0 0 0 0 0 0 0 0 0 0 0 0 0 0 0 0 0 0 0 0 0 0 0 0 0 0 0 0 0 0 0 0 0 0 0 0 0 0 0 0 0 0 0 0 0 0 0 0 "/>
</feComponentTransfer>
<feComposite operator="in" in2="effect1_innerShadow_10288_689" in="coloredNoise1" result="noise1Clipped" />
<feComponentTransfer in="alphaNoise" result="coloredNoise2">
<feFuncA type="discrete" tableValues="0 0 0 0 0 0 0 0 0 0 0 0 0 0 0 0 0 0 0 0 0 0 0 0 0 0 0 0 0 0 0 0 0 0 0 0 0 0 0 0 0 0 0 0 0 0 0 0 0 1 1 1 1 1 1 1 1 1 1 1 1 1 1 1 1 1 1 1 1 1 1 1 1 1 1 1 1 1 1 1 1 1 1 1 1 1 1 1 1 1 1 1 1 1 1 1 1 1 1 1 "/>
</feComponentTransfer>
<feComposite operator="in" in2="effect1_innerShadow_10288_689" in="coloredNoise2" result="noise2Clipped" />
<feFlood flood-color="rgba(229, 83, 75, 0.7)" result="color1Flood" />
<feComposite operator="in" in2="noise1Clipped" in="color1Flood" result="color1" />
<feFlood flood-color="rgba(95, 168, 211, 0.7)" result="color2Flood" />
<feComposite operator="in" in2="noise2Clipped" in="color2Flood" result="color2" />
<feMerge result="effect2_noise_10288_689">
<feMergeNode in="effect1_innerShadow_10288_689" />
<feMergeNode in="color1" />
<feMergeNode in="color2" />
</feMerge>
</filter>
</defs>
</svg>
