<svg width="53" height="54" viewBox="0 0 53 54" fill="none" xmlns="http://www.w3.org/2000/svg">
<path opacity="0.59" d="M16.432 41.8983C16.5648 39.7233 11.823 47.194 11.3469 45.5178C10.8898 43.8458 13.0405 39.6932 11.3727 39.9435C9.65923 40.164 10.1949 36.7189 8.66033 38.0114C7.093 39.2837 10.2395 34.3996 8.85914 35.0248C7.46183 35.6358 7.51612 34.7469 8.08622 32.8478C8.41844 31.7336 8.36111 30.4686 7.88887 29.9734L8.13145 30.1072C7.86987 29.8301 7.57673 30.0543 7.39635 31.0001C7.29836 31.4775 7.31189 31.6907 7.3157 31.706C7.34795 31.7414 7.51652 31.0857 7.38979 30.3338C7.28462 29.5825 6.98166 28.7565 6.76586 28.4126C6.59595 28.1408 6.41065 27.7634 6.23701 27.3675C6.16374 27.1996 6.06516 26.8368 5.98542 26.4746C5.98537 26.4744 5.98532 26.4742 5.98527 26.4739C5.8857 26.0231 5.81809 25.5731 5.85975 25.5046C6.08271 25.173 6.24402 24.3572 6.85328 22.6303C7.46894 21.0487 8.16312 21.1428 8.6085 21.4637C9.09885 21.8042 9.58886 22.3638 10.8598 21.9733C11.4493 21.7972 12.0107 21.5485 12.5476 21.2991C12.5898 21.3894 12.9477 21.4457 12.9826 21.539C14.5445 20.7131 16.1163 19.9492 16.06 21.84C15.9831 24.3028 20.9795 17.2253 19.5367 22.1425C18.2765 27.1532 23.1425 19.4818 24.9604 19.1205C26.7993 18.7682 26.3077 24.1385 27.4262 24.2272C27.7936 24.257 28.1965 24.2258 28.6417 24.2508C29.5807 24.316 30.5624 24.5564 31.1352 25.7265C31.9976 27.4739 35.0023 25.5637 35.5948 28.2129C36.1875 30.8636 37.1916 34.3185 37.4254 36.418C37.6636 38.5199 37.7471 39.0077 39.1541 38.428C39.9639 38.0926 40.428 38.9579 40.1414 41.3464C39.9958 42.5385 39.5662 44.1301 38.7986 44.6836C37.7737 45.515 37.6729 44.6317 36.5841 46.3906C34.4139 49.9046 33.5057 51.2171 33.8261 48.7505C34.1523 46.2859 31.6091 51.0683 31.4769 50.3222C31.3639 49.5832 32.7042 46.6935 29.7727 48.0342C26.8383 49.3708 25.5322 49.4406 24.5699 49.6355C23.6041 49.8285 23.3177 46.6207 21.7363 46.9669C20.5981 47.2141 19.2787 46.2761 18.0144 46.1008C17.4746 46.0112 16.9814 46.0563 16.4778 46.3222C14.7418 47.2852 16.3251 44.0838 16.432 41.8983Z" fill="#E5534B"/>
<path opacity="0.54" d="M31.6853 7.90523C32.5708 9.83157 32.4157 0.996314 33.4083 2.16281C34.4158 3.32818 34.934 7.97768 35.8712 6.84311C36.8066 5.70895 38.0949 8.81213 38.3941 6.85974C38.6887 4.90718 39.2143 10.6944 39.7588 9.35538C40.304 8.01666 40.7591 8.74121 41.4767 10.5793C42.1897 12.417 44.0524 13.8929 44.54 11.5366C44.6331 11.076 44.7474 10.8569 44.8621 10.8098C44.8646 10.8073 44.8773 10.8112 44.8797 10.8086C45.3905 10.6159 45.9988 13.3312 46.437 14.0604C46.5943 14.3439 46.7384 14.7383 46.8616 15.1514C46.9137 15.3265 46.9687 15.6984 47.007 16.0672C47.007 16.0675 47.007 16.0677 47.0071 16.068C47.0548 16.5272 47.0761 16.9813 47.0377 17.0439C46.8472 17.3479 46.6076 18.1235 46.3221 19.8265C46.0394 21.4538 45.785 21.3427 45.5493 21.0706L45.5656 21.0695C45.311 20.813 45.0375 20.4102 44.64 21.2225C43.8205 22.8892 43.5224 26.1289 42.2547 24.1484C40.9765 22.1699 41.4274 30.8398 39.4617 26.0666C37.4757 21.2963 38.0619 30.3551 36.608 31.6887C35.6121 32.5972 34.1836 30.6533 33.0748 29.4766L33.202 29.4651C32.687 28.9175 32.2398 28.5388 31.9542 28.6998C31.0557 29.2045 29.8964 30.3811 28.4404 29.3226C26.9832 28.2642 25.6323 31.439 23.9367 29.4625C22.2413 27.486 19.8677 25.0139 18.7173 23.3121C18.5882 23.1254 18.4726 22.9543 18.3676 22.7993C17.4922 21.546 17.1999 21.3593 16.4592 22.4213C15.9845 23.106 15.1724 22.5868 14.3089 20.314C13.8829 19.1668 13.877 17.5265 14.0893 16.7238C14.4151 15.5467 14.8664 16.2706 14.9036 14.2118C14.9755 10.0965 15.0119 8.51672 15.8447 10.8255C16.6756 13.134 16.421 7.72415 16.8285 8.30872C16.8609 8.35429 16.8929 8.41561 16.925 8.48869C17.2929 9.3535 17.6734 11.8629 19.0846 9.44242C20.6165 6.81678 21.5327 6.09377 22.1494 5.43846C22.7679 4.78293 24.4558 7.39536 25.4606 6.29064C26.4652 5.18562 28.8047 5.87426 29.5586 4.15761C30.117 2.88443 30.4565 4.50965 30.9674 6.21595C30.9828 6.199 31.0659 6.22236 31.0816 6.20557C31.2563 6.80169 31.4522 7.40784 31.6853 7.90523Z" fill="#5FA8D3"/>
<path d="M32.625 16.5L27 11.5L9.5 27.5L12 29.5L14.8846 27M32.625 16.5L45 27.5L42 29.5L39 26.9M32.625 16.5V12H38.2266V21M14.8846 27L27 16.5L39 26.9M14.8846 27V42.5H39V26.9M27.8391 38.6124C21.4925 33.3563 18.8046 30.4884 22.5 27.8732C24.5 27 27 27.5 27 30C27 30 26.5 26.5 31.5 27.5C36.5 28.5 27.5 39 27.5 39" stroke="black"/>
<circle cx="26.5" cy="26.5" r="26" stroke="black"/>
</svg>
