<svg width="53" height="54" viewBox="0 0 53 54" fill="none" xmlns="http://www.w3.org/2000/svg">
<path opacity="0.59" d="M16.4321 41.8983C16.5649 39.7233 11.8232 47.194 11.347 45.5178C10.89 43.8458 13.0406 39.6932 11.3728 39.9435C9.65935 40.164 10.195 36.7189 8.66045 38.0114C7.09312 39.2837 10.2396 34.3996 8.85926 35.0248C7.46195 35.6358 7.51624 34.7469 8.08635 32.8478C8.41856 31.7336 8.36123 30.4686 7.889 29.9734L8.13157 30.1072C7.87 29.8301 7.57685 30.0543 7.39648 31.0001C7.29848 31.4775 7.31201 31.6907 7.31582 31.706C7.34808 31.7414 7.51665 31.0857 7.38991 30.3338C7.28474 29.5825 6.98178 28.7565 6.76598 28.4126C6.59607 28.1408 6.41077 27.7634 6.23713 27.3675C6.16387 27.1996 6.06529 26.8368 5.98554 26.4746C5.98549 26.4744 5.98544 26.4742 5.98539 26.4739C5.88582 26.0231 5.81821 25.5731 5.85987 25.5046C6.08283 25.173 6.24414 24.3572 6.85341 22.6303C7.46906 21.0487 8.16324 21.1428 8.60863 21.4637C9.09897 21.8042 9.58899 22.3638 10.8599 21.9733C11.4494 21.7972 12.0109 21.5485 12.5478 21.2991C12.5899 21.3894 12.9478 21.4457 12.9827 21.539C14.5446 20.7131 16.1164 19.9492 16.0601 21.84C15.9832 24.3028 20.9796 17.2253 19.5368 22.1425C18.2766 27.1532 23.1427 19.4818 24.9605 19.1205C26.7994 18.7682 26.3078 24.1385 27.4264 24.2272C27.7938 24.257 28.1966 24.2258 28.6418 24.2508C29.5808 24.316 30.5625 24.5564 31.1353 25.7265C31.9977 27.4739 35.0024 25.5637 35.5949 28.2129C36.1876 30.8636 37.1918 34.3185 37.4256 36.418C37.6637 38.5199 37.7472 39.0077 39.1542 38.428C39.964 38.0926 40.4281 38.9579 40.1415 41.3464C39.9959 42.5385 39.5663 44.1301 38.7987 44.6836C37.7738 45.515 37.673 44.6317 36.5842 46.3906C34.4141 49.9046 33.5058 51.2171 33.8262 48.7505C34.1525 46.2859 31.6092 51.0683 31.477 50.3222C31.364 49.5832 32.7043 46.6935 29.7728 48.0342C26.8384 49.3708 25.5324 49.4406 24.57 49.6355C23.6043 49.8285 23.3178 46.6207 21.7364 46.9669C20.5982 47.2141 19.2788 46.2761 18.0145 46.1008C17.4747 46.0112 16.9815 46.0563 16.4779 46.3222C14.7419 47.2852 16.3252 44.0838 16.4321 41.8983Z" fill="#E5534B"/>
<path opacity="0.54" d="M31.6853 7.90523C32.5708 9.83157 32.4157 0.996314 33.4083 2.16281C34.4158 3.32818 34.934 7.97768 35.8712 6.84311C36.8066 5.70895 38.0949 8.81213 38.3941 6.85974C38.6887 4.90718 39.2143 10.6944 39.7588 9.35538C40.304 8.01666 40.7591 8.74121 41.4767 10.5793C42.1897 12.417 44.0524 13.8929 44.54 11.5366C44.6331 11.076 44.7474 10.8569 44.8621 10.8098C44.8646 10.8073 44.8773 10.8112 44.8797 10.8086C45.3905 10.6159 45.9988 13.3312 46.437 14.0604C46.5943 14.3439 46.7384 14.7383 46.8616 15.1514C46.9137 15.3265 46.9687 15.6984 47.007 16.0672C47.007 16.0675 47.007 16.0677 47.0071 16.068C47.0548 16.5272 47.0761 16.9813 47.0377 17.0439C46.8472 17.3479 46.6076 18.1235 46.3221 19.8265C46.0394 21.4538 45.785 21.3427 45.5493 21.0706L45.5656 21.0695C45.311 20.813 45.0375 20.4102 44.64 21.2225C43.8205 22.8892 43.5224 26.1289 42.2547 24.1484C40.9765 22.1699 41.4274 30.8398 39.4617 26.0666C37.4757 21.2963 38.0619 30.3551 36.608 31.6887C35.6121 32.5972 34.1836 30.6533 33.0748 29.4766L33.202 29.4651C32.687 28.9175 32.2398 28.5388 31.9542 28.6998C31.0557 29.2045 29.8964 30.3811 28.4404 29.3226C26.9832 28.2642 25.6323 31.439 23.9367 29.4625C22.2413 27.486 19.8677 25.0139 18.7173 23.3121C18.5882 23.1254 18.4726 22.9543 18.3676 22.7993C17.4922 21.546 17.1999 21.3593 16.4592 22.4213C15.9845 23.106 15.1724 22.5868 14.3089 20.314C13.8829 19.1668 13.877 17.5265 14.0893 16.7238C14.4151 15.5467 14.8664 16.2706 14.9036 14.2118C14.9755 10.0965 15.0119 8.51672 15.8447 10.8255C16.6756 13.134 16.421 7.72415 16.8285 8.30872C16.8609 8.35429 16.8929 8.41561 16.925 8.48869C17.2929 9.3535 17.6734 11.8629 19.0846 9.44242C20.6165 6.81678 21.5327 6.09377 22.1494 5.43846C22.7679 4.78293 24.4558 7.39536 25.4606 6.29064C26.4652 5.18562 28.8047 5.87426 29.5586 4.15761C30.117 2.88443 30.4565 4.50965 30.9674 6.21595C30.9828 6.199 31.0659 6.22236 31.0816 6.20557C31.2563 6.80169 31.4522 7.40784 31.6853 7.90523Z" fill="#5FA8D3"/>
<circle cx="26.5" cy="26.5" r="26" stroke="black"/>
<path d="M21.9999 39.9999H31.4999M21.9999 42.4999H31.4999M23.4999 44.9999H30.4999M25.4999 45.9999H28.4999M21.9999 37.4999H25.4999M31.4999 37.4999H28.4999M21.9999 36.4999L20.4999 33.4999C15.935 24.5785 15.6974 21.095 18.4999 16.9999C24.9623 12.1104 28.4448 12.4771 34.5 16.9999C38.2128 21.9565 38.283 25.4313 33 33.4999L31.4999 36.4999M25.4999 37.4999V30.4999C24.4778 27.5656 24.4118 24.7128 25.4999 22.9999M25.4999 37.4999H28.4999M28.4999 37.4999V30.4999C29.7987 28.5247 29.9167 25.67 29.4999 22.9999L28.4999 21.4999C28.7756 21.3708 25.5002 22.5 25.3245 23.2906" stroke="black"/>
<path d="M27.5 8V11M15 13L17 15.5M11 24H14M40 14L37.5 15.5M43.5 24H40" stroke="black"/>
</svg>
