<svg width="300" height="72" viewBox="0 0 300 72" fill="none" xmlns="http://www.w3.org/2000/svg">
<rect width="300" height="72" fill="white"/>
<circle cx="47.9758" cy="37.052" r="26.052" fill="#E5534B"/>
<g opacity="0.69">
<circle cx="61.721" cy="37.052" r="26.052" fill="#001F3F"/>
</g>
<g filter="url(#filter0_in_10290_764)">
<path d="M62.2382 49.5807C63.184 49.5807 63.184 48.3196 63.184 48.3196V45.1667M63.184 45.1667L56.5631 49.5807M63.184 45.1667L69.805 41.6986C70.7352 39.7077 70.7593 38.366 69.805 37.9153M61.6076 29.7179C62.8688 29.7179 66.9367 32.1202 66.6522 36.0236M62.5535 26.5651C65.0188 26.2277 65.9621 27.0199 66.3369 29.4026M66.3369 29.4026L65.0757 31.6096M66.3369 29.4026C68.1583 30.1787 69.1744 30.979 68.8591 33.5013L66.6551 35.9809" stroke="#F9F9F9" stroke-width="1.5"/>
<path d="M56.8783 49.2654C66.9673 39.1764 66.652 38.2305 66.652 35.7083M56.8783 49.2654L63.6997 42.9598L70.0053 37.6C70.8036 35.3547 70.2238 34.7277 68.859 33.8166M56.8783 49.2654L55.3019 50.8418L53.8895 49.5807M46.8571 45.363C46.8571 48.6419 46.5462 49.4756 47.1767 49.5807H50.8528L53.8895 49.5807M53.8895 49.5807L40.1683 40.8878C40.1683 40.8878 40.1384 40.4341 40.1683 39.807C40.1924 39.2999 41.1142 38.2306 41.1142 38.2306M53.8895 49.5807L51.2032 46.9228M41.1142 38.2306C41.1142 38.2306 39.9655 37.0184 40.1683 36.0236C40.3457 35.1536 41.7447 33.8166 41.7447 33.8166M41.1142 38.2306L51.2032 46.9228M41.7447 33.8166L43.6364 35.7083M41.7447 33.8166C41.385 31.7776 41.8977 30.6488 43.9517 29.7179M51.2032 46.9228C47.7351 42.6459 44.519 41.1378 43.6833 36.0236M43.6364 35.7083C43.6507 35.8148 43.6664 35.9199 43.6833 36.0236M43.6364 35.7083L43.6833 36.0236M43.6364 35.7083C43.9454 33.9553 44.3091 33.0398 45.5281 31.6096M62.2381 49.5807L56.563 49.5807M43.9517 29.7179L45.5281 31.6096M43.9517 29.7179C44.6623 26.9281 45.5301 26.3181 47.7351 26.5651L48.6809 30.0332M45.5281 31.6096C45.5281 31.6096 46.9394 30.7482 48.6809 30.0332M48.6809 30.0332C49.9666 29.9074 51.311 30.2061 53.0904 30.8564M47.7351 26.8804C49.0179 24.7257 49.9677 24.045 52.4643 24.6734M52.4643 24.6734C52.7796 24.6734 53.0904 30.8564 53.0904 30.8564M52.4643 24.6734C55.3019 22.6674 55.9921 22.9923 57.5088 24.6734M53.0904 30.8564L55.3019 33.5013C56.9151 30.7562 58.8974 29.9971 61.9228 29.7179M57.5088 24.6734V30.8564M57.5088 24.6734C60.6146 24.0729 61.9871 24.7142 62.5534 26.5651L61.6075 29.7179" stroke="#F9F9F9" stroke-width="1.5"/>
</g>
<path d="M110.524 33L109.768 29.8945H107.688L106.944 33H106.346L108.409 24.4336H109L111.11 33H110.524ZM109.633 29.3145L108.877 26.1211C108.799 25.7617 108.739 25.4219 108.696 25.1016C108.661 25.4414 108.606 25.7812 108.532 26.1211L107.799 29.3145H109.633ZM115.208 30.7559C115.208 31.459 115.013 32.0293 114.622 32.4668C114.232 32.9004 113.736 33.1172 113.134 33.1172C112.451 33.1172 111.902 33.0176 111.488 32.8184V32.1973C111.691 32.3105 111.943 32.4004 112.243 32.4668C112.544 32.5332 112.841 32.5664 113.134 32.5664C113.572 32.5664 113.931 32.4004 114.212 32.0684C114.493 31.7363 114.634 31.3145 114.634 30.8027C114.634 30.3301 114.535 29.9551 114.335 29.6777C114.136 29.4004 113.755 29.123 113.193 28.8457C112.751 28.623 112.421 28.4082 112.202 28.2012C111.984 27.9902 111.822 27.7461 111.716 27.4688C111.611 27.1914 111.558 26.8594 111.558 26.4727C111.558 26.0508 111.644 25.6758 111.816 25.3477C111.988 25.0195 112.228 24.7656 112.536 24.5859C112.845 24.4023 113.183 24.3105 113.55 24.3105C113.882 24.3105 114.183 24.3477 114.452 24.4219C114.726 24.4961 114.941 24.5762 115.097 24.6621L114.874 25.2129C114.441 24.9902 113.999 24.8789 113.55 24.8789C113.128 24.8789 112.785 25.0234 112.519 25.3125C112.257 25.5977 112.126 25.9766 112.126 26.4492C112.126 26.9297 112.222 27.3027 112.413 27.5684C112.605 27.834 112.98 28.1094 113.538 28.3945C114.117 28.6758 114.538 29.0059 114.804 29.3848C115.074 29.7598 115.208 30.2168 115.208 30.7559ZM121.188 28.7051C121.188 30.123 120.975 31.2129 120.549 31.9746C120.127 32.7363 119.516 33.1172 118.715 33.1172C117.906 33.1172 117.293 32.7344 116.875 31.9688C116.457 31.1992 116.248 30.1074 116.248 28.6934C116.248 27.2168 116.455 26.1172 116.869 25.3945C117.283 24.6719 117.904 24.3105 118.733 24.3105C119.529 24.3105 120.137 24.6914 120.555 25.4531C120.977 26.2109 121.188 27.2949 121.188 28.7051ZM116.846 28.7051C116.846 29.9785 117.004 30.9414 117.32 31.5938C117.641 32.2422 118.106 32.5664 118.715 32.5664C119.328 32.5664 119.793 32.2441 120.11 31.5996C120.43 30.9551 120.59 29.9902 120.59 28.7051C120.59 27.4355 120.434 26.4785 120.121 25.834C119.809 25.1855 119.346 24.8613 118.733 24.8613C118.104 24.8613 117.631 25.1895 117.315 25.8457C117.002 26.498 116.846 27.4512 116.846 28.7051ZM125.069 24.8496C124.425 24.8496 123.911 25.1914 123.528 25.875C123.149 26.5547 122.96 27.498 122.96 28.7051C122.96 29.4902 123.048 30.1738 123.224 30.7559C123.399 31.3379 123.651 31.7852 123.979 32.0977C124.308 32.4102 124.688 32.5664 125.122 32.5664C125.567 32.5664 125.95 32.4863 126.271 32.3262V32.8535C125.966 33.0293 125.565 33.1172 125.069 33.1172C124.526 33.1172 124.05 32.9414 123.64 32.5898C123.233 32.2383 122.919 31.7305 122.696 31.0664C122.474 30.3984 122.362 29.6074 122.362 28.6934C122.362 27.3262 122.604 26.252 123.089 25.4707C123.577 24.6895 124.241 24.2988 125.081 24.2988C125.604 24.2988 126.062 24.4199 126.452 24.6621L126.188 25.166C125.86 24.9551 125.487 24.8496 125.069 24.8496ZM127.556 33V24.4336H128.131V33H127.556ZM133.114 33L132.358 29.8945H130.278L129.534 33H128.936L130.999 24.4336H131.59L133.7 33H133.114ZM132.223 29.3145L131.467 26.1211C131.389 25.7617 131.329 25.4219 131.286 25.1016C131.251 25.4414 131.196 25.7812 131.122 26.1211L130.389 29.3145H132.223ZM136.931 24.8496C136.287 24.8496 135.773 25.1914 135.39 25.875C135.011 26.5547 134.822 27.498 134.822 28.7051C134.822 29.4902 134.91 30.1738 135.085 30.7559C135.261 31.3379 135.513 31.7852 135.841 32.0977C136.169 32.4102 136.55 32.5664 136.984 32.5664C137.429 32.5664 137.812 32.4863 138.132 32.3262V32.8535C137.828 33.0293 137.427 33.1172 136.931 33.1172C136.388 33.1172 135.912 32.9414 135.501 32.5898C135.095 32.2383 134.781 31.7305 134.558 31.0664C134.335 30.3984 134.224 29.6074 134.224 28.6934C134.224 27.3262 134.466 26.252 134.951 25.4707C135.439 24.6895 136.103 24.2988 136.943 24.2988C137.466 24.2988 137.923 24.4199 138.314 24.6621L138.05 25.166C137.722 24.9551 137.349 24.8496 136.931 24.8496ZM139.418 33V24.4336H139.993V33H139.418ZM146.388 28.7051C146.388 30.123 146.175 31.2129 145.749 31.9746C145.327 32.7363 144.716 33.1172 143.915 33.1172C143.107 33.1172 142.493 32.7344 142.075 31.9688C141.657 31.1992 141.448 30.1074 141.448 28.6934C141.448 27.2168 141.655 26.1172 142.069 25.3945C142.484 24.6719 143.105 24.3105 143.933 24.3105C144.73 24.3105 145.337 24.6914 145.755 25.4531C146.177 26.2109 146.388 27.2949 146.388 28.7051ZM142.046 28.7051C142.046 29.9785 142.204 30.9414 142.521 31.5938C142.841 32.2422 143.306 32.5664 143.915 32.5664C144.528 32.5664 144.993 32.2441 145.31 31.5996C145.63 30.9551 145.79 29.9902 145.79 28.7051C145.79 27.4355 145.634 26.4785 145.321 25.834C145.009 25.1855 144.546 24.8613 143.933 24.8613C143.304 24.8613 142.831 25.1895 142.515 25.8457C142.202 26.498 142.046 27.4512 142.046 28.7051ZM143.487 23.748V23.625C143.984 22.9766 144.357 22.377 144.607 21.8262H145.339V21.9258C145.187 22.1992 144.954 22.5137 144.642 22.8691C144.333 23.2246 144.04 23.5176 143.763 23.748H143.487ZM152.361 33H151.629L148.389 25.3184H148.342C148.389 25.8496 148.412 26.3613 148.412 26.8535V33H147.85V24.4336H148.594L151.811 32.0273H151.846C151.814 31.3867 151.799 30.8516 151.799 30.4219V24.4336H152.361V33ZM158.654 24.8496C158.009 24.8496 157.496 25.1914 157.113 25.875C156.734 26.5547 156.545 27.498 156.545 28.7051C156.545 29.4902 156.632 30.1738 156.808 30.7559C156.984 31.3379 157.236 31.7852 157.564 32.0977C157.892 32.4102 158.273 32.5664 158.707 32.5664C159.152 32.5664 159.535 32.4863 159.855 32.3262V32.8535C159.55 33.0293 159.15 33.1172 158.654 33.1172C158.111 33.1172 157.634 32.9414 157.224 32.5898C156.818 32.2383 156.504 31.7305 156.281 31.0664C156.058 30.3984 155.947 29.6074 155.947 28.6934C155.947 27.3262 156.189 26.252 156.674 25.4707C157.162 24.6895 157.826 24.2988 158.666 24.2988C159.189 24.2988 159.646 24.4199 160.037 24.6621L159.773 25.166C159.445 24.9551 159.072 24.8496 158.654 24.8496ZM165.266 24.4336V30.2168C165.266 32.1504 164.575 33.1172 163.192 33.1172C162.5 33.1172 161.973 32.8672 161.61 32.3672C161.247 31.8672 161.065 31.1504 161.065 30.2168V24.4336H161.645V30.2871C161.645 31.0293 161.778 31.5957 162.043 31.9863C162.313 32.373 162.696 32.5664 163.192 32.5664C163.684 32.5664 164.057 32.373 164.311 31.9863C164.565 31.5957 164.692 31.0215 164.692 30.2637V24.4336H165.266ZM166.939 33V24.4336H167.513V32.4492H169.927V33H166.939ZM172.402 33H171.828V24.9844H170.123V24.4336H174.108V24.9844H172.402V33ZM179.144 24.4336V30.2168C179.144 32.1504 178.452 33.1172 177.069 33.1172C176.378 33.1172 175.851 32.8672 175.487 32.3672C175.124 31.8672 174.942 31.1504 174.942 30.2168V24.4336H175.522V30.2871C175.522 31.0293 175.655 31.5957 175.921 31.9863C176.19 32.373 176.573 32.5664 177.069 32.5664C177.562 32.5664 177.935 32.373 178.188 31.9863C178.442 31.5957 178.569 31.0215 178.569 30.2637V24.4336H179.144ZM181.39 29.2559V33H180.816V24.4336H181.988C182.824 24.4336 183.435 24.6309 183.822 25.0254C184.209 25.4199 184.402 26.0098 184.402 26.7949C184.402 27.3887 184.297 27.877 184.086 28.2598C183.875 28.6426 183.521 28.9297 183.025 29.1211L184.724 33H184.08L182.48 29.2559H181.39ZM181.39 28.7285H182.193C182.713 28.7285 183.113 28.5684 183.394 28.248C183.676 27.9277 183.816 27.4512 183.816 26.8184C183.816 26.1738 183.672 25.709 183.383 25.4238C183.097 25.1387 182.646 24.9961 182.029 24.9961H181.39V28.7285ZM189.022 33L188.266 29.8945H186.186L185.442 33H184.844L186.907 24.4336H187.499L189.608 33H189.022ZM188.132 29.3145L187.376 26.1211C187.298 25.7617 187.237 25.4219 187.194 25.1016C187.159 25.4414 187.104 25.7812 187.03 26.1211L186.298 29.3145H188.132ZM190.419 33V24.4336H190.994V32.4492H193.408V33H190.419ZM160.982 46.1895H164.38V50.6309C163.931 50.7793 163.464 50.8984 162.98 50.9883C162.495 51.0742 161.947 51.1172 161.333 51.1172C160.482 51.1172 159.759 50.9492 159.165 50.6133C158.572 50.2773 158.12 49.7812 157.812 49.125C157.503 48.4688 157.349 47.6621 157.349 46.7051C157.349 45.8066 157.521 45.0293 157.865 44.373C158.212 43.7168 158.718 43.209 159.382 42.8496C160.05 42.4902 160.865 42.3105 161.825 42.3105C162.279 42.3105 162.726 42.3594 163.167 42.457C163.609 42.5547 164.009 42.6816 164.368 42.8379L163.765 44.291C163.503 44.1582 163.204 44.0469 162.868 43.957C162.532 43.8672 162.181 43.8223 161.814 43.8223C161.286 43.8223 160.827 43.9434 160.437 44.1855C160.05 44.4277 159.749 44.7676 159.534 45.2051C159.323 45.6387 159.218 46.1504 159.218 46.7402C159.218 47.2988 159.294 47.7949 159.447 48.2285C159.599 48.6582 159.839 48.9961 160.167 49.2422C160.495 49.4844 160.923 49.6055 161.45 49.6055C161.708 49.6055 161.925 49.5938 162.101 49.5703C162.281 49.543 162.448 49.5156 162.605 49.4883V47.7012H160.982V46.1895ZM171.537 51L170.916 48.9609H167.793L167.172 51H165.215L168.238 42.3984H170.459L173.494 51H171.537ZM170.482 47.4375L169.861 45.4453C169.822 45.3125 169.77 45.1426 169.703 44.9355C169.641 44.7246 169.576 44.5117 169.51 44.2969C169.447 44.0781 169.397 43.8887 169.357 43.7285C169.318 43.8887 169.264 44.0879 169.193 44.3262C169.127 44.5605 169.063 44.7832 169 44.9941C168.938 45.2051 168.893 45.3555 168.865 45.4453L168.25 47.4375H170.482ZM174.446 51V42.4336H176.263V49.5H179.737V51H174.446ZM181.099 51V42.4336H182.916V51H181.099ZM188.579 43.8223C188.231 43.8223 187.922 43.8906 187.653 44.0273C187.387 44.1602 187.163 44.3535 186.979 44.6074C186.799 44.8613 186.663 45.168 186.569 45.5273C186.475 45.8867 186.428 46.291 186.428 46.7402C186.428 47.3457 186.503 47.8633 186.651 48.293C186.803 48.7188 187.038 49.0449 187.354 49.2715C187.67 49.4941 188.079 49.6055 188.579 49.6055C188.926 49.6055 189.274 49.5664 189.622 49.4883C189.973 49.4102 190.354 49.2988 190.764 49.1543V50.6777C190.385 50.834 190.012 50.9453 189.645 51.0117C189.278 51.082 188.866 51.1172 188.409 51.1172C187.526 51.1172 186.799 50.9355 186.229 50.5723C185.663 50.2051 185.243 49.6934 184.969 49.0371C184.696 48.377 184.559 47.6074 184.559 46.7285C184.559 46.0801 184.647 45.4863 184.823 44.9473C184.999 44.4082 185.256 43.9414 185.596 43.5469C185.936 43.1523 186.356 42.8477 186.856 42.6328C187.356 42.418 187.93 42.3105 188.579 42.3105C189.004 42.3105 189.43 42.3652 189.856 42.4746C190.286 42.5801 190.696 42.7266 191.087 42.9141L190.501 44.3906C190.18 44.2383 189.858 44.1055 189.534 43.9922C189.21 43.8789 188.891 43.8223 188.579 43.8223ZM192.46 51V42.4336H194.277V51H192.46ZM201.545 51L200.924 48.9609H197.801L197.18 51H195.223L198.246 42.3984H200.467L203.502 51H201.545ZM200.49 47.4375L199.869 45.4453C199.83 45.3125 199.778 45.1426 199.711 44.9355C199.649 44.7246 199.584 44.5117 199.518 44.2969C199.455 44.0781 199.405 43.8887 199.365 43.7285C199.326 43.8887 199.272 44.0879 199.201 44.3262C199.135 44.5605 199.071 44.7832 199.008 44.9941C198.946 45.2051 198.901 45.3555 198.873 45.4453L198.258 47.4375H200.49Z" fill="#001F3F"/>
<path d="M101.209 43.8223C100.861 43.8223 100.553 43.8906 100.283 44.0273C100.017 44.1602 99.7927 44.3535 99.6091 44.6074C99.4295 44.8613 99.2927 45.168 99.199 45.5273C99.1052 45.8867 99.0584 46.291 99.0584 46.7402C99.0584 47.3457 99.1326 47.8633 99.281 48.293C99.4334 48.7188 99.6677 49.0449 99.9841 49.2715C100.301 49.4941 100.709 49.6055 101.209 49.6055C101.556 49.6055 101.904 49.5664 102.252 49.4883C102.603 49.4102 102.984 49.2988 103.394 49.1543V50.6777C103.015 50.834 102.642 50.9453 102.275 51.0117C101.908 51.082 101.496 51.1172 101.039 51.1172C100.156 51.1172 99.4295 50.9355 98.8591 50.5723C98.2927 50.2051 97.8728 49.6934 97.5994 49.0371C97.3259 48.377 97.1892 47.6074 97.1892 46.7285C97.1892 46.0801 97.2771 45.4863 97.4529 44.9473C97.6287 44.4082 97.8865 43.9414 98.2263 43.5469C98.5662 43.1523 98.9861 42.8477 99.4861 42.6328C99.9861 42.418 100.56 42.3105 101.209 42.3105C101.635 42.3105 102.06 42.3652 102.486 42.4746C102.916 42.5801 103.326 42.7266 103.717 42.9141L103.131 44.3906C102.81 44.2383 102.488 44.1055 102.164 43.9922C101.84 43.8789 101.521 43.8223 101.209 43.8223ZM112.11 51H110.299V47.3027H106.907V51H105.09V42.4336H106.907V45.791H110.299V42.4336H112.11V51ZM119.08 51H114.146V42.4336H119.08V43.9219H115.962V45.8027H118.863V47.291H115.962V49.5H119.08V51ZM124.379 43.8223C124.032 43.8223 123.723 43.8906 123.453 44.0273C123.188 44.1602 122.963 44.3535 122.78 44.6074C122.6 44.8613 122.463 45.168 122.369 45.5273C122.276 45.8867 122.229 46.291 122.229 46.7402C122.229 47.3457 122.303 47.8633 122.451 48.293C122.604 48.7188 122.838 49.0449 123.155 49.2715C123.471 49.4941 123.879 49.6055 124.379 49.6055C124.727 49.6055 125.074 49.5664 125.422 49.4883C125.774 49.4102 126.155 49.2988 126.565 49.1543V50.6777C126.186 50.834 125.813 50.9453 125.446 51.0117C125.078 51.082 124.666 51.1172 124.209 51.1172C123.326 51.1172 122.6 50.9355 122.03 50.5723C121.463 50.2051 121.043 49.6934 120.77 49.0371C120.496 48.377 120.36 47.6074 120.36 46.7285C120.36 46.0801 120.448 45.4863 120.623 44.9473C120.799 44.4082 121.057 43.9414 121.397 43.5469C121.737 43.1523 122.157 42.8477 122.657 42.6328C123.157 42.418 123.731 42.3105 124.379 42.3105C124.805 42.3105 125.231 42.3652 125.657 42.4746C126.086 42.5801 126.496 42.7266 126.887 42.9141L126.301 44.3906C125.981 44.2383 125.658 44.1055 125.334 43.9922C125.01 43.8789 124.692 43.8223 124.379 43.8223ZM133.505 51L132.884 48.9609H129.761L129.14 51H127.183L130.206 42.3984H132.427L135.462 51H133.505ZM132.45 47.4375L131.829 45.4453C131.79 45.3125 131.737 45.1426 131.671 44.9355C131.608 44.7246 131.544 44.5117 131.478 44.2969C131.415 44.0781 131.364 43.8887 131.325 43.7285C131.286 43.8887 131.232 44.0879 131.161 44.3262C131.095 44.5605 131.03 44.7832 130.968 44.9941C130.905 45.2051 130.86 45.3555 130.833 45.4453L130.218 47.4375H132.45Z" fill="#E5534B"/>
<path d="M146.507 46.6348C146.507 47.5996 146.321 48.4062 145.95 49.0547C145.583 49.6992 145.05 50.1855 144.35 50.5137C143.651 50.8379 142.809 51 141.825 51H139.399V42.4336H142.089C142.987 42.4336 143.766 42.5938 144.427 42.9141C145.087 43.2305 145.598 43.7012 145.962 44.3262C146.325 44.9473 146.507 45.7168 146.507 46.6348ZM144.62 46.6816C144.62 46.0488 144.526 45.5293 144.339 45.123C144.155 44.7129 143.882 44.4102 143.518 44.2148C143.159 44.0195 142.714 43.9219 142.182 43.9219H141.216V49.5H141.995C142.882 49.5 143.54 49.2637 143.969 48.791C144.403 48.3184 144.62 47.6152 144.62 46.6816ZM153.084 51H148.15V42.4336H153.084V43.9219H149.966V45.8027H152.867V47.291H149.966V49.5H153.084V51Z" fill="#5FA8D3"/>
<defs>
<filter id="filter0_in_10290_764" x="39.3943" y="22.5381" width="31.8676" height="33.3352" filterUnits="userSpaceOnUse" color-interpolation-filters="sRGB">
<feFlood flood-opacity="0" result="BackgroundImageFix"/>
<feBlend mode="normal" in="SourceGraphic" in2="BackgroundImageFix" result="shape"/>
<feColorMatrix in="SourceAlpha" type="matrix" values="0 0 0 0 0 0 0 0 0 0 0 0 0 0 0 0 0 0 127 0" result="hardAlpha"/>
<feOffset dy="4"/>
<feGaussianBlur stdDeviation="2"/>
<feComposite in2="hardAlpha" operator="arithmetic" k2="-1" k3="1"/>
<feColorMatrix type="matrix" values="0 0 0 0 0.372549 0 0 0 0 0.658824 0 0 0 0 0.827451 0 0 0 0.35 0"/>
<feBlend mode="normal" in2="shape" result="effect1_innerShadow_10290_764"/>
<feTurbulence type="fractalNoise" baseFrequency="0.06915629655122757 0.06915629655122757" stitchTiles="stitch" numOctaves="3" result="noise" seed="1161" />
<feColorMatrix in="noise" type="luminanceToAlpha" result="alphaNoise" />
<feComponentTransfer in="alphaNoise" result="coloredNoise1">
<feFuncA type="discrete" tableValues="1 1 1 1 1 1 1 1 1 1 1 1 1 1 1 1 1 1 1 1 1 1 1 1 1 1 1 1 1 1 1 1 1 1 1 1 1 1 1 1 1 1 1 1 1 1 1 1 1 1 1 0 0 0 0 0 0 0 0 0 0 0 0 0 0 0 0 0 0 0 0 0 0 0 0 0 0 0 0 0 0 0 0 0 0 0 0 0 0 0 0 0 0 0 0 0 0 0 0 0 "/>
</feComponentTransfer>
<feComposite operator="in" in2="effect1_innerShadow_10290_764" in="coloredNoise1" result="noise1Clipped" />
<feComponentTransfer in="alphaNoise" result="coloredNoise2">
<feFuncA type="discrete" tableValues="0 0 0 0 0 0 0 0 0 0 0 0 0 0 0 0 0 0 0 0 0 0 0 0 0 0 0 0 0 0 0 0 0 0 0 0 0 0 0 0 0 0 0 0 0 0 0 0 0 1 1 1 1 1 1 1 1 1 1 1 1 1 1 1 1 1 1 1 1 1 1 1 1 1 1 1 1 1 1 1 1 1 1 1 1 1 1 1 1 1 1 1 1 1 1 1 1 1 1 1 "/>
</feComponentTransfer>
<feComposite operator="in" in2="effect1_innerShadow_10290_764" in="coloredNoise2" result="noise2Clipped" />
<feFlood flood-color="rgba(229, 83, 75, 0.7)" result="color1Flood" />
<feComposite operator="in" in2="noise1Clipped" in="color1Flood" result="color1" />
<feFlood flood-color="rgba(95, 168, 211, 0.7)" result="color2Flood" />
<feComposite operator="in" in2="noise2Clipped" in="color2Flood" result="color2" />
<feMerge result="effect2_noise_10290_764">
<feMergeNode in="effect1_innerShadow_10290_764" />
<feMergeNode in="color1" />
<feMergeNode in="color2" />
</feMerge>
</filter>
</defs>
</svg>
