<svg width="400" height="300" viewBox="0 0 400 300" fill="none" xmlns="http://www.w3.org/2000/svg">
<rect width="400" height="300" fill="white"/>
<circle cx="174.781" cy="107.781" r="93.7806" fill="#E5534B"/>
<g opacity="0.69">
<circle cx="224.26" cy="107.781" r="93.7806" fill="#001F3F"/>
</g>
<g filter="url(#filter0_in_10335_2838)">
<path d="M226.122 152.881C229.526 152.881 229.526 148.341 229.526 148.341V136.992M229.526 136.992L205.693 152.881M229.526 136.992L253.36 124.508C256.709 117.34 256.795 112.511 253.36 110.888M223.852 81.3798C228.391 81.3798 243.035 90.0274 242.011 104.079M227.256 70.0305C236.131 68.8159 239.527 71.6678 240.876 80.2449M240.876 80.2449L236.336 88.1895M240.876 80.2449C247.432 83.0387 251.09 85.9196 249.955 94.9991L242.021 103.925" stroke="#F9F9F9" stroke-width="4"/>
<path d="M206.827 151.746C243.145 115.428 242.01 112.023 242.01 102.944M206.827 151.746L231.382 129.047L254.081 109.753C256.955 101.671 254.868 99.414 249.955 96.1341M206.827 151.746L201.152 157.421L196.068 152.881M170.753 137.698C170.753 149.502 169.634 152.503 171.904 152.881H185.137L196.068 152.881M196.068 152.881L146.675 121.589C146.675 121.589 146.568 119.955 146.675 117.698C146.762 115.873 150.08 112.023 150.08 112.023M196.068 152.881L186.398 143.313M150.08 112.023C150.08 112.023 145.945 107.66 146.675 104.079C147.314 100.947 152.35 96.1341 152.35 96.1341M150.08 112.023L186.398 143.313M152.35 96.1341L159.16 102.944M152.35 96.1341C151.055 88.7943 152.901 84.7308 160.295 81.3799M186.398 143.313C173.914 127.918 162.337 122.489 159.329 104.079M159.16 102.944C159.211 103.327 159.268 103.705 159.329 104.079M159.16 102.944L159.329 104.079M159.16 102.944C160.272 96.6336 161.581 93.338 165.969 88.1895M226.121 152.881L205.692 152.881M160.295 81.3799L165.969 88.1895M160.295 81.3799C162.852 71.3374 165.977 69.1413 173.914 70.0305L177.319 82.5148M165.969 88.1895C165.969 88.1895 171.049 85.0888 177.319 82.5148M177.319 82.5148C181.947 82.062 186.786 83.1371 193.191 85.4782M173.914 71.1654C178.532 63.4091 181.951 60.9588 190.938 63.2208M190.938 63.2208C192.073 63.2208 193.191 85.4782 193.191 85.4782M190.938 63.2208C201.152 55.9999 203.637 57.1695 209.097 63.2208M193.191 85.4782L201.152 94.9991C206.96 85.1176 214.095 82.385 224.986 81.3799M209.097 63.2208V85.4782M209.097 63.2208C220.277 61.0594 225.218 63.3679 227.256 70.0305L223.851 81.3799" stroke="#F9F9F9" stroke-width="4"/>
</g>
<path d="M133.707 239L132.447 233.824H128.98L127.74 239H126.744L130.181 224.723H131.168L134.683 239H133.707ZM132.222 232.857L130.962 227.535C130.832 226.936 130.731 226.37 130.66 225.836C130.601 226.402 130.51 226.969 130.386 227.535L129.166 232.857H132.222ZM141.514 235.26C141.514 236.432 141.188 237.382 140.537 238.111C139.886 238.834 139.059 239.195 138.057 239.195C136.918 239.195 136.003 239.029 135.313 238.697V237.662C135.651 237.851 136.071 238.001 136.573 238.111C137.074 238.222 137.569 238.277 138.057 238.277C138.786 238.277 139.385 238.001 139.854 237.447C140.323 236.894 140.557 236.191 140.557 235.338C140.557 234.55 140.391 233.925 140.059 233.463C139.727 233.001 139.092 232.538 138.155 232.076C137.419 231.705 136.869 231.347 136.504 231.002C136.14 230.65 135.869 230.243 135.694 229.781C135.518 229.319 135.43 228.766 135.43 228.121C135.43 227.418 135.573 226.793 135.86 226.246C136.146 225.699 136.546 225.276 137.061 224.977C137.575 224.671 138.138 224.518 138.75 224.518C139.304 224.518 139.805 224.579 140.254 224.703C140.71 224.827 141.068 224.96 141.328 225.104L140.957 226.021C140.235 225.65 139.499 225.465 138.75 225.465C138.047 225.465 137.474 225.706 137.031 226.188C136.595 226.663 136.377 227.294 136.377 228.082C136.377 228.883 136.537 229.505 136.856 229.947C137.175 230.39 137.8 230.849 138.731 231.324C139.694 231.793 140.397 232.343 140.84 232.975C141.289 233.6 141.514 234.361 141.514 235.26ZM151.479 231.842C151.479 234.205 151.125 236.021 150.415 237.291C149.712 238.561 148.693 239.195 147.358 239.195C146.011 239.195 144.989 238.557 144.292 237.281C143.595 235.999 143.247 234.179 143.247 231.822C143.247 229.361 143.592 227.529 144.282 226.324C144.972 225.12 146.007 224.518 147.388 224.518C148.716 224.518 149.728 225.152 150.425 226.422C151.128 227.685 151.479 229.492 151.479 231.842ZM144.243 231.842C144.243 233.964 144.507 235.569 145.034 236.656C145.568 237.737 146.343 238.277 147.358 238.277C148.38 238.277 149.155 237.74 149.683 236.666C150.216 235.592 150.483 233.984 150.483 231.842C150.483 229.726 150.223 228.131 149.702 227.057C149.181 225.976 148.41 225.436 147.388 225.436C146.339 225.436 145.552 225.982 145.024 227.076C144.504 228.163 144.243 229.752 144.243 231.842ZM157.949 225.416C156.875 225.416 156.019 225.986 155.381 227.125C154.749 228.258 154.433 229.83 154.433 231.842C154.433 233.15 154.58 234.29 154.873 235.26C155.166 236.23 155.586 236.975 156.133 237.496C156.679 238.017 157.314 238.277 158.037 238.277C158.779 238.277 159.417 238.144 159.951 237.877V238.756C159.443 239.049 158.776 239.195 157.949 239.195C157.044 239.195 156.25 238.902 155.566 238.316C154.889 237.73 154.365 236.884 153.994 235.777C153.623 234.664 153.437 233.346 153.437 231.822C153.437 229.544 153.841 227.753 154.648 226.451C155.462 225.149 156.569 224.498 157.968 224.498C158.841 224.498 159.603 224.7 160.254 225.104L159.814 225.943C159.267 225.592 158.646 225.416 157.949 225.416ZM162.094 239V224.723H163.051V239H162.094ZM171.357 239L170.097 233.824H166.63L165.39 239H164.394L167.831 224.723H168.818L172.333 239H171.357ZM169.872 232.857L168.612 227.535C168.482 226.936 168.381 226.37 168.31 225.836C168.251 226.402 168.16 226.969 168.036 227.535L166.816 232.857H169.872ZM177.719 225.416C176.644 225.416 175.788 225.986 175.15 227.125C174.519 228.258 174.203 229.83 174.203 231.842C174.203 233.15 174.349 234.29 174.642 235.26C174.935 236.23 175.355 236.975 175.902 237.496C176.449 238.017 177.084 238.277 177.806 238.277C178.549 238.277 179.187 238.144 179.721 237.877V238.756C179.213 239.049 178.545 239.195 177.719 239.195C176.814 239.195 176.019 238.902 175.336 238.316C174.659 237.73 174.135 236.884 173.764 235.777C173.392 234.664 173.207 233.346 173.207 231.822C173.207 229.544 173.611 227.753 174.418 226.451C175.232 225.149 176.338 224.498 177.738 224.498C178.611 224.498 179.372 224.7 180.023 225.104L179.584 225.943C179.037 225.592 178.415 225.416 177.719 225.416ZM181.864 239V224.723H182.821V239H181.864ZM193.48 231.842C193.48 234.205 193.125 236.021 192.415 237.291C191.712 238.561 190.693 239.195 189.359 239.195C188.011 239.195 186.989 238.557 186.292 237.281C185.596 235.999 185.247 234.179 185.247 231.822C185.247 229.361 185.592 227.529 186.283 226.324C186.973 225.12 188.008 224.518 189.388 224.518C190.716 224.518 191.728 225.152 192.425 226.422C193.128 227.685 193.48 229.492 193.48 231.842ZM186.243 231.842C186.243 233.964 186.507 235.569 187.034 236.656C187.568 237.737 188.343 238.277 189.359 238.277C190.381 238.277 191.156 237.74 191.683 236.666C192.217 235.592 192.484 233.984 192.484 231.842C192.484 229.726 192.223 228.131 191.702 227.057C191.182 225.976 190.41 225.436 189.388 225.436C188.34 225.436 187.552 225.982 187.025 227.076C186.504 228.163 186.243 229.752 186.243 231.842ZM188.646 223.58V223.375C189.473 222.294 190.094 221.295 190.511 220.377H191.732V220.543C191.478 220.999 191.09 221.523 190.57 222.115C190.055 222.708 189.567 223.196 189.105 223.58H188.646ZM203.436 239H202.215L196.814 226.197H196.736C196.814 227.083 196.854 227.936 196.854 228.756V239H195.916V224.723H197.156L202.518 237.379H202.576C202.524 236.311 202.498 235.419 202.498 234.703V224.723H203.436V239ZM213.923 225.416C212.849 225.416 211.993 225.986 211.355 227.125C210.723 228.258 210.408 229.83 210.408 231.842C210.408 233.15 210.554 234.29 210.847 235.26C211.14 236.23 211.56 236.975 212.107 237.496C212.654 238.017 213.289 238.277 214.011 238.277C214.753 238.277 215.391 238.144 215.925 237.877V238.756C215.417 239.049 214.75 239.195 213.923 239.195C213.018 239.195 212.224 238.902 211.54 238.316C210.863 237.73 210.339 236.884 209.968 235.777C209.597 234.664 209.412 233.346 209.412 231.822C209.412 229.544 209.815 227.753 210.623 226.451C211.436 225.149 212.543 224.498 213.943 224.498C214.815 224.498 215.577 224.7 216.228 225.104L215.789 225.943C215.242 225.592 214.62 225.416 213.923 225.416ZM224.944 224.723V234.361C224.944 237.584 223.791 239.195 221.486 239.195C220.334 239.195 219.455 238.779 218.85 237.945C218.244 237.112 217.942 235.917 217.942 234.361V224.723H218.908V234.479C218.908 235.715 219.13 236.66 219.572 237.311C220.022 237.955 220.66 238.277 221.486 238.277C222.307 238.277 222.929 237.955 223.352 237.311C223.775 236.66 223.986 235.702 223.986 234.439V224.723H224.944ZM227.731 239V224.723H228.688V238.082H232.712V239H227.731ZM236.837 239H235.88V225.641H233.039V224.723H239.679V225.641H236.837V239ZM248.073 224.723V234.361C248.073 237.584 246.92 239.195 244.616 239.195C243.463 239.195 242.584 238.779 241.979 237.945C241.373 237.112 241.071 235.917 241.071 234.361V224.723H242.037V234.479C242.037 235.715 242.259 236.66 242.701 237.311C243.151 237.955 243.789 238.277 244.616 238.277C245.436 238.277 246.058 237.955 246.481 237.311C246.904 236.66 247.116 235.702 247.116 234.439V224.723H248.073ZM251.817 232.76V239H250.86V224.723H252.814C254.207 224.723 255.226 225.051 255.87 225.709C256.515 226.367 256.837 227.35 256.837 228.658C256.837 229.648 256.661 230.462 256.31 231.1C255.958 231.738 255.369 232.216 254.542 232.535L257.374 239H256.3L253.634 232.76H251.817ZM251.817 231.881H253.155C254.021 231.881 254.689 231.614 255.157 231.08C255.626 230.546 255.86 229.752 255.86 228.697C255.86 227.623 255.62 226.848 255.138 226.373C254.662 225.898 253.911 225.66 252.882 225.66H251.817V231.881ZM264.537 239L263.277 233.824H259.81L258.57 239H257.574L261.011 224.723H261.998L265.513 239H264.537ZM263.052 232.857L261.793 227.535C261.663 226.936 261.562 226.37 261.49 225.836C261.431 226.402 261.34 226.969 261.217 227.535L259.996 232.857H263.052ZM266.866 239V224.723H267.823V238.082H271.846V239H266.866ZM217.803 260.982H223.467V268.385C222.718 268.632 221.94 268.831 221.133 268.98C220.326 269.124 219.411 269.195 218.389 269.195C216.969 269.195 215.765 268.915 214.775 268.355C213.786 267.796 213.034 266.969 212.52 265.875C212.005 264.781 211.748 263.437 211.748 261.842C211.748 260.344 212.035 259.049 212.607 257.955C213.187 256.861 214.03 256.015 215.137 255.416C216.25 254.817 217.607 254.518 219.209 254.518C219.964 254.518 220.71 254.599 221.445 254.762C222.181 254.924 222.848 255.136 223.447 255.396L222.441 257.818C222.005 257.597 221.507 257.411 220.947 257.262C220.387 257.112 219.802 257.037 219.19 257.037C218.311 257.037 217.546 257.239 216.895 257.643C216.25 258.046 215.749 258.613 215.391 259.342C215.039 260.064 214.863 260.917 214.863 261.9C214.863 262.831 214.99 263.658 215.244 264.381C215.498 265.097 215.899 265.66 216.445 266.07C216.992 266.474 217.705 266.676 218.584 266.676C219.014 266.676 219.375 266.656 219.668 266.617C219.968 266.572 220.247 266.526 220.508 266.48V263.502H217.803V260.982ZM235.395 269L234.36 265.602H229.155L228.12 269H224.858L229.897 254.664H233.598L238.657 269H235.395ZM233.638 263.062L232.602 259.742C232.537 259.521 232.449 259.238 232.339 258.893C232.235 258.541 232.127 258.186 232.016 257.828C231.912 257.464 231.828 257.148 231.763 256.881C231.697 257.148 231.606 257.48 231.489 257.877C231.378 258.268 231.271 258.639 231.167 258.99C231.063 259.342 230.988 259.592 230.942 259.742L229.917 263.062H233.638ZM240.244 269V254.723H243.271V266.5H249.062V269H240.244ZM251.332 269V254.723H254.36V269H251.332ZM263.798 257.037C263.218 257.037 262.704 257.151 262.255 257.379C261.812 257.6 261.438 257.923 261.132 258.346C260.832 258.769 260.604 259.28 260.448 259.879C260.292 260.478 260.214 261.152 260.214 261.9C260.214 262.91 260.338 263.772 260.585 264.488C260.839 265.198 261.229 265.742 261.757 266.119C262.284 266.49 262.964 266.676 263.798 266.676C264.377 266.676 264.957 266.611 265.536 266.48C266.122 266.35 266.757 266.165 267.44 265.924V268.463C266.809 268.723 266.187 268.909 265.575 269.02C264.963 269.137 264.276 269.195 263.515 269.195C262.043 269.195 260.832 268.893 259.882 268.287C258.938 267.675 258.238 266.822 257.782 265.729C257.326 264.628 257.099 263.346 257.099 261.881C257.099 260.8 257.245 259.811 257.538 258.912C257.831 258.014 258.261 257.236 258.827 256.578C259.394 255.921 260.093 255.413 260.927 255.055C261.76 254.697 262.717 254.518 263.798 254.518C264.507 254.518 265.217 254.609 265.927 254.791C266.643 254.967 267.326 255.211 267.978 255.523L267.001 257.984C266.467 257.73 265.93 257.509 265.39 257.32C264.849 257.132 264.319 257.037 263.798 257.037ZM270.267 269V254.723H273.295V269H270.267ZM285.409 269L284.373 265.602H279.168L278.133 269H274.871L279.911 254.664H283.612L288.67 269H285.409ZM283.651 263.062L282.616 259.742C282.551 259.521 282.463 259.238 282.352 258.893C282.248 258.541 282.14 258.186 282.03 257.828C281.926 257.464 281.841 257.148 281.776 256.881C281.711 257.148 281.62 257.48 281.502 257.877C281.392 258.268 281.284 258.639 281.18 258.99C281.076 259.342 281.001 259.592 280.955 259.742L279.93 263.062H283.651Z" fill="#001F3F"/>
<path d="M118.181 257.037C117.602 257.037 117.088 257.151 116.638 257.379C116.196 257.6 115.821 257.923 115.515 258.346C115.216 258.769 114.988 259.28 114.832 259.879C114.675 260.478 114.597 261.152 114.597 261.9C114.597 262.91 114.721 263.772 114.968 264.488C115.222 265.198 115.613 265.742 116.14 266.119C116.668 266.49 117.348 266.676 118.181 266.676C118.761 266.676 119.34 266.611 119.92 266.48C120.505 266.35 121.14 266.165 121.824 265.924V268.463C121.192 268.723 120.571 268.909 119.959 269.02C119.347 269.137 118.66 269.195 117.898 269.195C116.427 269.195 115.216 268.893 114.265 268.287C113.321 267.675 112.621 266.822 112.166 265.729C111.71 264.628 111.482 263.346 111.482 261.881C111.482 260.8 111.629 259.811 111.921 258.912C112.214 258.014 112.644 257.236 113.211 256.578C113.777 255.921 114.477 255.413 115.31 255.055C116.143 254.697 117.101 254.518 118.181 254.518C118.891 254.518 119.601 254.609 120.31 254.791C121.026 254.967 121.71 255.211 122.361 255.523L121.384 257.984C120.851 257.73 120.313 257.509 119.773 257.32C119.233 257.132 118.702 257.037 118.181 257.037ZM136.35 269H133.332V262.838H127.678V269H124.651V254.723H127.678V260.318H133.332V254.723H136.35V269ZM147.966 269H139.743V254.723H147.966V257.203H142.771V260.338H147.605V262.818H142.771V266.5H147.966V269ZM156.799 257.037C156.219 257.037 155.705 257.151 155.256 257.379C154.813 257.6 154.439 257.923 154.133 258.346C153.833 258.769 153.605 259.28 153.449 259.879C153.293 260.478 153.215 261.152 153.215 261.9C153.215 262.91 153.338 263.772 153.586 264.488C153.84 265.198 154.23 265.742 154.758 266.119C155.285 266.49 155.965 266.676 156.799 266.676C157.378 266.676 157.957 266.611 158.537 266.48C159.123 266.35 159.758 266.165 160.441 265.924V268.463C159.81 268.723 159.188 268.909 158.576 269.02C157.964 269.137 157.277 269.195 156.515 269.195C155.044 269.195 153.833 268.893 152.883 268.287C151.939 267.675 151.239 266.822 150.783 265.729C150.327 264.628 150.099 263.346 150.099 261.881C150.099 260.8 150.246 259.811 150.539 258.912C150.832 258.014 151.261 257.236 151.828 256.578C152.394 255.921 153.094 255.413 153.928 255.055C154.761 254.697 155.718 254.518 156.799 254.518C157.508 254.518 158.218 254.609 158.928 254.791C159.644 254.967 160.327 255.211 160.978 255.523L160.002 257.984C159.468 257.73 158.931 257.509 158.39 257.32C157.85 257.132 157.319 257.037 156.799 257.037ZM172.008 269L170.973 265.602H165.768L164.733 269H161.471L166.51 254.664H170.211L175.27 269H172.008ZM170.25 263.062L169.215 259.742C169.15 259.521 169.062 259.238 168.952 258.893C168.847 258.541 168.74 258.186 168.629 257.828C168.525 257.464 168.441 257.148 168.375 256.881C168.31 257.148 168.219 257.48 168.102 257.877C167.991 258.268 167.884 258.639 167.78 258.99C167.676 259.342 167.601 259.592 167.555 259.742L166.53 263.062H170.25Z" fill="#E5534B"/>
<path d="M193.678 261.725C193.678 263.333 193.368 264.677 192.75 265.758C192.138 266.832 191.249 267.643 190.084 268.189C188.919 268.73 187.516 269 185.875 269H181.832V254.723H186.314C187.812 254.723 189.111 254.99 190.211 255.523C191.311 256.051 192.164 256.835 192.769 257.877C193.375 258.912 193.678 260.195 193.678 261.725ZM190.533 261.803C190.533 260.748 190.377 259.882 190.064 259.205C189.758 258.521 189.303 258.017 188.697 257.691C188.098 257.366 187.356 257.203 186.471 257.203H184.859V266.5H186.158C187.636 266.5 188.733 266.106 189.449 265.318C190.172 264.531 190.533 263.359 190.533 261.803ZM204.639 269H196.417V254.723H204.639V257.203H199.444V260.338H204.278V262.818H199.444V266.5H204.639V269Z" fill="#5FA8D3"/>
<defs>
<filter id="filter0_in_10335_2838" x="144.589" y="56.2341" width="113.315" height="107.937" filterUnits="userSpaceOnUse" color-interpolation-filters="sRGB">
<feFlood flood-opacity="0" result="BackgroundImageFix"/>
<feBlend mode="normal" in="SourceGraphic" in2="BackgroundImageFix" result="shape"/>
<feColorMatrix in="SourceAlpha" type="matrix" values="0 0 0 0 0 0 0 0 0 0 0 0 0 0 0 0 0 0 127 0" result="hardAlpha"/>
<feOffset dy="4"/>
<feGaussianBlur stdDeviation="2"/>
<feComposite in2="hardAlpha" operator="arithmetic" k2="-1" k3="1"/>
<feColorMatrix type="matrix" values="0 0 0 0 0.372549 0 0 0 0 0.658824 0 0 0 0 0.827451 0 0 0 0.35 0"/>
<feBlend mode="normal" in2="shape" result="effect1_innerShadow_10335_2838"/>
<feTurbulence type="fractalNoise" baseFrequency="0.06915629655122757 0.06915629655122757" stitchTiles="stitch" numOctaves="3" result="noise" seed="1161" />
<feColorMatrix in="noise" type="luminanceToAlpha" result="alphaNoise" />
<feComponentTransfer in="alphaNoise" result="coloredNoise1">
<feFuncA type="discrete" tableValues="1 1 1 1 1 1 1 1 1 1 1 1 1 1 1 1 1 1 1 1 1 1 1 1 1 1 1 1 1 1 1 1 1 1 1 1 1 1 1 1 1 1 1 1 1 1 1 1 1 1 1 0 0 0 0 0 0 0 0 0 0 0 0 0 0 0 0 0 0 0 0 0 0 0 0 0 0 0 0 0 0 0 0 0 0 0 0 0 0 0 0 0 0 0 0 0 0 0 0 0 "/>
</feComponentTransfer>
<feComposite operator="in" in2="effect1_innerShadow_10335_2838" in="coloredNoise1" result="noise1Clipped" />
<feComponentTransfer in="alphaNoise" result="coloredNoise2">
<feFuncA type="discrete" tableValues="0 0 0 0 0 0 0 0 0 0 0 0 0 0 0 0 0 0 0 0 0 0 0 0 0 0 0 0 0 0 0 0 0 0 0 0 0 0 0 0 0 0 0 0 0 0 0 0 0 1 1 1 1 1 1 1 1 1 1 1 1 1 1 1 1 1 1 1 1 1 1 1 1 1 1 1 1 1 1 1 1 1 1 1 1 1 1 1 1 1 1 1 1 1 1 1 1 1 1 1 "/>
</feComponentTransfer>
<feComposite operator="in" in2="effect1_innerShadow_10335_2838" in="coloredNoise2" result="noise2Clipped" />
<feFlood flood-color="rgba(229, 83, 75, 0.7)" result="color1Flood" />
<feComposite operator="in" in2="noise1Clipped" in="color1Flood" result="color1" />
<feFlood flood-color="rgba(95, 168, 211, 0.7)" result="color2Flood" />
<feComposite operator="in" in2="noise2Clipped" in="color2Flood" result="color2" />
<feMerge result="effect2_noise_10335_2838">
<feMergeNode in="effect1_innerShadow_10335_2838" />
<feMergeNode in="color1" />
<feMergeNode in="color2" />
</feMerge>
</filter>
</defs>
</svg>
